<?xml version="1.0" encoding="utf-8" standalone="no"?>
<!DOCTYPE svg PUBLIC "-//W3C//DTD SVG 1.1//EN"
  "http://www.w3.org/Graphics/SVG/1.1/DTD/svg11.dtd">
<!-- Created with matplotlib (https://matplotlib.org/) -->
<svg height="617.04pt" version="1.1" viewBox="0 0 1304.64 617.04" width="1304.64pt" xmlns="http://www.w3.org/2000/svg" xmlns:xlink="http://www.w3.org/1999/xlink">
 <defs>
  <style type="text/css">
*{stroke-linecap:butt;stroke-linejoin:round;}
  </style>
 </defs>
 <g id="figure_1">
  <g id="patch_1">
   <path d="M 0 617.04 
L 1304.64 617.04 
L 1304.64 0 
L 0 0 
z
" style="fill:#ffffff;"/>
  </g>
  <g id="axes_1">
   <g id="patch_2">
    <path d="M 51.73 589.16 
L 1293.84 589.16 
L 1293.84 10.8 
L 51.73 10.8 
z
" style="fill:#ffffff;"/>
   </g>
   <g id="matplotlib.axis_1">
    <g id="xtick_1">
     <g id="line2d_1">
      <path clip-path="url(#pf379b6658d)" d="M 51.73 589.16 
L 51.73 10.8 
" style="fill:none;stroke:#808080;stroke-linecap:square;stroke-width:0.8;"/>
     </g>
     <g id="line2d_2">
      <defs>
       <path d="M 0 0 
L 0 3.5 
" id="mf0170f166d" style="stroke:#000000;stroke-width:0.8;"/>
      </defs>
      <g>
       <use style="stroke:#000000;stroke-width:0.8;" x="51.73" xlink:href="#mf0170f166d" y="589.16"/>
      </g>
     </g>
     <g id="text_1">
      <!-- 1527.0 -->
      <defs>
       <path d="M 12.40625 8.296875 
L 28.515625 8.296875 
L 28.515625 63.921875 
L 10.984375 60.40625 
L 10.984375 69.390625 
L 28.421875 72.90625 
L 38.28125 72.90625 
L 38.28125 8.296875 
L 54.390625 8.296875 
L 54.390625 0 
L 12.40625 0 
z
" id="DejaVuSans-49"/>
       <path d="M 10.796875 72.90625 
L 49.515625 72.90625 
L 49.515625 64.59375 
L 19.828125 64.59375 
L 19.828125 46.734375 
Q 21.96875 47.46875 24.109375 47.828125 
Q 26.265625 48.1875 28.421875 48.1875 
Q 40.625 48.1875 47.75 41.5 
Q 54.890625 34.8125 54.890625 23.390625 
Q 54.890625 11.625 47.5625 5.09375 
Q 40.234375 -1.421875 26.90625 -1.421875 
Q 22.3125 -1.421875 17.546875 -0.640625 
Q 12.796875 0.140625 7.71875 1.703125 
L 7.71875 11.625 
Q 12.109375 9.234375 16.796875 8.0625 
Q 21.484375 6.890625 26.703125 6.890625 
Q 35.15625 6.890625 40.078125 11.328125 
Q 45.015625 15.765625 45.015625 23.390625 
Q 45.015625 31 40.078125 35.4375 
Q 35.15625 39.890625 26.703125 39.890625 
Q 22.75 39.890625 18.8125 39.015625 
Q 14.890625 38.140625 10.796875 36.28125 
z
" id="DejaVuSans-53"/>
       <path d="M 19.1875 8.296875 
L 53.609375 8.296875 
L 53.609375 0 
L 7.328125 0 
L 7.328125 8.296875 
Q 12.9375 14.109375 22.625 23.890625 
Q 32.328125 33.6875 34.8125 36.53125 
Q 39.546875 41.84375 41.421875 45.53125 
Q 43.3125 49.21875 43.3125 52.78125 
Q 43.3125 58.59375 39.234375 62.25 
Q 35.15625 65.921875 28.609375 65.921875 
Q 23.96875 65.921875 18.8125 64.3125 
Q 13.671875 62.703125 7.8125 59.421875 
L 7.8125 69.390625 
Q 13.765625 71.78125 18.9375 73 
Q 24.125 74.21875 28.421875 74.21875 
Q 39.75 74.21875 46.484375 68.546875 
Q 53.21875 62.890625 53.21875 53.421875 
Q 53.21875 48.921875 51.53125 44.890625 
Q 49.859375 40.875 45.40625 35.40625 
Q 44.1875 33.984375 37.640625 27.21875 
Q 31.109375 20.453125 19.1875 8.296875 
z
" id="DejaVuSans-50"/>
       <path d="M 8.203125 72.90625 
L 55.078125 72.90625 
L 55.078125 68.703125 
L 28.609375 0 
L 18.3125 0 
L 43.21875 64.59375 
L 8.203125 64.59375 
z
" id="DejaVuSans-55"/>
       <path d="M 10.6875 12.40625 
L 21 12.40625 
L 21 0 
L 10.6875 0 
z
" id="DejaVuSans-46"/>
       <path d="M 31.78125 66.40625 
Q 24.171875 66.40625 20.328125 58.90625 
Q 16.5 51.421875 16.5 36.375 
Q 16.5 21.390625 20.328125 13.890625 
Q 24.171875 6.390625 31.78125 6.390625 
Q 39.453125 6.390625 43.28125 13.890625 
Q 47.125 21.390625 47.125 36.375 
Q 47.125 51.421875 43.28125 58.90625 
Q 39.453125 66.40625 31.78125 66.40625 
z
M 31.78125 74.21875 
Q 44.046875 74.21875 50.515625 64.515625 
Q 56.984375 54.828125 56.984375 36.375 
Q 56.984375 17.96875 50.515625 8.265625 
Q 44.046875 -1.421875 31.78125 -1.421875 
Q 19.53125 -1.421875 13.0625 8.265625 
Q 6.59375 17.96875 6.59375 36.375 
Q 6.59375 54.828125 13.0625 64.515625 
Q 19.53125 74.21875 31.78125 74.21875 
z
" id="DejaVuSans-48"/>
      </defs>
      <g transform="translate(34.234687 603.758437)scale(0.1 -0.1)">
       <use xlink:href="#DejaVuSans-49"/>
       <use x="63.623047" xlink:href="#DejaVuSans-53"/>
       <use x="127.246094" xlink:href="#DejaVuSans-50"/>
       <use x="190.869141" xlink:href="#DejaVuSans-55"/>
       <use x="254.492188" xlink:href="#DejaVuSans-46"/>
       <use x="286.279297" xlink:href="#DejaVuSans-48"/>
      </g>
     </g>
    </g>
    <g id="xtick_2">
     <g id="line2d_3">
      <path clip-path="url(#pf379b6658d)" d="M 258.748333 589.16 
L 258.748333 10.8 
" style="fill:none;stroke:#808080;stroke-linecap:square;stroke-width:0.8;"/>
     </g>
     <g id="line2d_4">
      <g>
       <use style="stroke:#000000;stroke-width:0.8;" x="258.748333" xlink:href="#mf0170f166d" y="589.16"/>
      </g>
     </g>
     <g id="text_2">
      <!-- 1527.5 -->
      <g transform="translate(241.253021 603.758437)scale(0.1 -0.1)">
       <use xlink:href="#DejaVuSans-49"/>
       <use x="63.623047" xlink:href="#DejaVuSans-53"/>
       <use x="127.246094" xlink:href="#DejaVuSans-50"/>
       <use x="190.869141" xlink:href="#DejaVuSans-55"/>
       <use x="254.492188" xlink:href="#DejaVuSans-46"/>
       <use x="286.279297" xlink:href="#DejaVuSans-53"/>
      </g>
     </g>
    </g>
    <g id="xtick_3">
     <g id="line2d_5">
      <path clip-path="url(#pf379b6658d)" d="M 465.766667 589.16 
L 465.766667 10.8 
" style="fill:none;stroke:#808080;stroke-linecap:square;stroke-width:0.8;"/>
     </g>
     <g id="line2d_6">
      <g>
       <use style="stroke:#000000;stroke-width:0.8;" x="465.766667" xlink:href="#mf0170f166d" y="589.16"/>
      </g>
     </g>
     <g id="text_3">
      <!-- 1528.0 -->
      <defs>
       <path d="M 31.78125 34.625 
Q 24.75 34.625 20.71875 30.859375 
Q 16.703125 27.09375 16.703125 20.515625 
Q 16.703125 13.921875 20.71875 10.15625 
Q 24.75 6.390625 31.78125 6.390625 
Q 38.8125 6.390625 42.859375 10.171875 
Q 46.921875 13.96875 46.921875 20.515625 
Q 46.921875 27.09375 42.890625 30.859375 
Q 38.875 34.625 31.78125 34.625 
z
M 21.921875 38.8125 
Q 15.578125 40.375 12.03125 44.71875 
Q 8.5 49.078125 8.5 55.328125 
Q 8.5 64.0625 14.71875 69.140625 
Q 20.953125 74.21875 31.78125 74.21875 
Q 42.671875 74.21875 48.875 69.140625 
Q 55.078125 64.0625 55.078125 55.328125 
Q 55.078125 49.078125 51.53125 44.71875 
Q 48 40.375 41.703125 38.8125 
Q 48.828125 37.15625 52.796875 32.3125 
Q 56.78125 27.484375 56.78125 20.515625 
Q 56.78125 9.90625 50.3125 4.234375 
Q 43.84375 -1.421875 31.78125 -1.421875 
Q 19.734375 -1.421875 13.25 4.234375 
Q 6.78125 9.90625 6.78125 20.515625 
Q 6.78125 27.484375 10.78125 32.3125 
Q 14.796875 37.15625 21.921875 38.8125 
z
M 18.3125 54.390625 
Q 18.3125 48.734375 21.84375 45.5625 
Q 25.390625 42.390625 31.78125 42.390625 
Q 38.140625 42.390625 41.71875 45.5625 
Q 45.3125 48.734375 45.3125 54.390625 
Q 45.3125 60.0625 41.71875 63.234375 
Q 38.140625 66.40625 31.78125 66.40625 
Q 25.390625 66.40625 21.84375 63.234375 
Q 18.3125 60.0625 18.3125 54.390625 
z
" id="DejaVuSans-56"/>
      </defs>
      <g transform="translate(448.271354 603.758437)scale(0.1 -0.1)">
       <use xlink:href="#DejaVuSans-49"/>
       <use x="63.623047" xlink:href="#DejaVuSans-53"/>
       <use x="127.246094" xlink:href="#DejaVuSans-50"/>
       <use x="190.869141" xlink:href="#DejaVuSans-56"/>
       <use x="254.492188" xlink:href="#DejaVuSans-46"/>
       <use x="286.279297" xlink:href="#DejaVuSans-48"/>
      </g>
     </g>
    </g>
    <g id="xtick_4">
     <g id="line2d_7">
      <path clip-path="url(#pf379b6658d)" d="M 672.785 589.16 
L 672.785 10.8 
" style="fill:none;stroke:#808080;stroke-linecap:square;stroke-width:0.8;"/>
     </g>
     <g id="line2d_8">
      <g>
       <use style="stroke:#000000;stroke-width:0.8;" x="672.785" xlink:href="#mf0170f166d" y="589.16"/>
      </g>
     </g>
     <g id="text_4">
      <!-- 1528.5 -->
      <g transform="translate(655.289687 603.758437)scale(0.1 -0.1)">
       <use xlink:href="#DejaVuSans-49"/>
       <use x="63.623047" xlink:href="#DejaVuSans-53"/>
       <use x="127.246094" xlink:href="#DejaVuSans-50"/>
       <use x="190.869141" xlink:href="#DejaVuSans-56"/>
       <use x="254.492188" xlink:href="#DejaVuSans-46"/>
       <use x="286.279297" xlink:href="#DejaVuSans-53"/>
      </g>
     </g>
    </g>
    <g id="xtick_5">
     <g id="line2d_9">
      <path clip-path="url(#pf379b6658d)" d="M 879.803333 589.16 
L 879.803333 10.8 
" style="fill:none;stroke:#808080;stroke-linecap:square;stroke-width:0.8;"/>
     </g>
     <g id="line2d_10">
      <g>
       <use style="stroke:#000000;stroke-width:0.8;" x="879.803333" xlink:href="#mf0170f166d" y="589.16"/>
      </g>
     </g>
     <g id="text_5">
      <!-- 1529.0 -->
      <defs>
       <path d="M 10.984375 1.515625 
L 10.984375 10.5 
Q 14.703125 8.734375 18.5 7.8125 
Q 22.3125 6.890625 25.984375 6.890625 
Q 35.75 6.890625 40.890625 13.453125 
Q 46.046875 20.015625 46.78125 33.40625 
Q 43.953125 29.203125 39.59375 26.953125 
Q 35.25 24.703125 29.984375 24.703125 
Q 19.046875 24.703125 12.671875 31.3125 
Q 6.296875 37.9375 6.296875 49.421875 
Q 6.296875 60.640625 12.9375 67.421875 
Q 19.578125 74.21875 30.609375 74.21875 
Q 43.265625 74.21875 49.921875 64.515625 
Q 56.59375 54.828125 56.59375 36.375 
Q 56.59375 19.140625 48.40625 8.859375 
Q 40.234375 -1.421875 26.421875 -1.421875 
Q 22.703125 -1.421875 18.890625 -0.6875 
Q 15.09375 0.046875 10.984375 1.515625 
z
M 30.609375 32.421875 
Q 37.25 32.421875 41.125 36.953125 
Q 45.015625 41.5 45.015625 49.421875 
Q 45.015625 57.28125 41.125 61.84375 
Q 37.25 66.40625 30.609375 66.40625 
Q 23.96875 66.40625 20.09375 61.84375 
Q 16.21875 57.28125 16.21875 49.421875 
Q 16.21875 41.5 20.09375 36.953125 
Q 23.96875 32.421875 30.609375 32.421875 
z
" id="DejaVuSans-57"/>
      </defs>
      <g transform="translate(862.308021 603.758437)scale(0.1 -0.1)">
       <use xlink:href="#DejaVuSans-49"/>
       <use x="63.623047" xlink:href="#DejaVuSans-53"/>
       <use x="127.246094" xlink:href="#DejaVuSans-50"/>
       <use x="190.869141" xlink:href="#DejaVuSans-57"/>
       <use x="254.492188" xlink:href="#DejaVuSans-46"/>
       <use x="286.279297" xlink:href="#DejaVuSans-48"/>
      </g>
     </g>
    </g>
    <g id="xtick_6">
     <g id="line2d_11">
      <path clip-path="url(#pf379b6658d)" d="M 1086.821667 589.16 
L 1086.821667 10.8 
" style="fill:none;stroke:#808080;stroke-linecap:square;stroke-width:0.8;"/>
     </g>
     <g id="line2d_12">
      <g>
       <use style="stroke:#000000;stroke-width:0.8;" x="1086.821667" xlink:href="#mf0170f166d" y="589.16"/>
      </g>
     </g>
     <g id="text_6">
      <!-- 1529.5 -->
      <g transform="translate(1069.326354 603.758437)scale(0.1 -0.1)">
       <use xlink:href="#DejaVuSans-49"/>
       <use x="63.623047" xlink:href="#DejaVuSans-53"/>
       <use x="127.246094" xlink:href="#DejaVuSans-50"/>
       <use x="190.869141" xlink:href="#DejaVuSans-57"/>
       <use x="254.492188" xlink:href="#DejaVuSans-46"/>
       <use x="286.279297" xlink:href="#DejaVuSans-53"/>
      </g>
     </g>
    </g>
    <g id="xtick_7">
     <g id="line2d_13">
      <path clip-path="url(#pf379b6658d)" d="M 1293.84 589.16 
L 1293.84 10.8 
" style="fill:none;stroke:#808080;stroke-linecap:square;stroke-width:0.8;"/>
     </g>
     <g id="line2d_14">
      <g>
       <use style="stroke:#000000;stroke-width:0.8;" x="1293.84" xlink:href="#mf0170f166d" y="589.16"/>
      </g>
     </g>
     <g id="text_7">
      <!-- 1530.0 -->
      <defs>
       <path d="M 40.578125 39.3125 
Q 47.65625 37.796875 51.625 33 
Q 55.609375 28.21875 55.609375 21.1875 
Q 55.609375 10.40625 48.1875 4.484375 
Q 40.765625 -1.421875 27.09375 -1.421875 
Q 22.515625 -1.421875 17.65625 -0.515625 
Q 12.796875 0.390625 7.625 2.203125 
L 7.625 11.71875 
Q 11.71875 9.328125 16.59375 8.109375 
Q 21.484375 6.890625 26.8125 6.890625 
Q 36.078125 6.890625 40.9375 10.546875 
Q 45.796875 14.203125 45.796875 21.1875 
Q 45.796875 27.640625 41.28125 31.265625 
Q 36.765625 34.90625 28.71875 34.90625 
L 20.21875 34.90625 
L 20.21875 43.015625 
L 29.109375 43.015625 
Q 36.375 43.015625 40.234375 45.921875 
Q 44.09375 48.828125 44.09375 54.296875 
Q 44.09375 59.90625 40.109375 62.90625 
Q 36.140625 65.921875 28.71875 65.921875 
Q 24.65625 65.921875 20.015625 65.03125 
Q 15.375 64.15625 9.8125 62.3125 
L 9.8125 71.09375 
Q 15.4375 72.65625 20.34375 73.4375 
Q 25.25 74.21875 29.59375 74.21875 
Q 40.828125 74.21875 47.359375 69.109375 
Q 53.90625 64.015625 53.90625 55.328125 
Q 53.90625 49.265625 50.4375 45.09375 
Q 46.96875 40.921875 40.578125 39.3125 
z
" id="DejaVuSans-51"/>
      </defs>
      <g transform="translate(1276.344687 603.758437)scale(0.1 -0.1)">
       <use xlink:href="#DejaVuSans-49"/>
       <use x="63.623047" xlink:href="#DejaVuSans-53"/>
       <use x="127.246094" xlink:href="#DejaVuSans-51"/>
       <use x="190.869141" xlink:href="#DejaVuSans-48"/>
       <use x="254.492188" xlink:href="#DejaVuSans-46"/>
       <use x="286.279297" xlink:href="#DejaVuSans-48"/>
      </g>
     </g>
    </g>
   </g>
   <g id="matplotlib.axis_2">
    <g id="ytick_1">
     <g id="line2d_15">
      <path clip-path="url(#pf379b6658d)" d="M 51.73 492.766667 
L 1293.84 492.766667 
" style="fill:none;stroke:#808080;stroke-linecap:square;stroke-width:0.8;"/>
     </g>
     <g id="line2d_16">
      <defs>
       <path d="M 0 0 
L -3.5 0 
" id="me956b8bcc6" style="stroke:#000000;stroke-width:0.8;"/>
      </defs>
      <g>
       <use style="stroke:#000000;stroke-width:0.8;" x="51.73" xlink:href="#me956b8bcc6" y="492.766667"/>
      </g>
     </g>
     <g id="text_8">
      <!-- 0 -->
      <g transform="translate(38.3675 496.565885)scale(0.1 -0.1)">
       <use xlink:href="#DejaVuSans-48"/>
      </g>
     </g>
    </g>
    <g id="ytick_2">
     <g id="line2d_17">
      <path clip-path="url(#pf379b6658d)" d="M 51.73 372.275 
L 1293.84 372.275 
" style="fill:none;stroke:#808080;stroke-linecap:square;stroke-width:0.8;"/>
     </g>
     <g id="line2d_18">
      <g>
       <use style="stroke:#000000;stroke-width:0.8;" x="51.73" xlink:href="#me956b8bcc6" y="372.275"/>
      </g>
     </g>
     <g id="text_9">
      <!-- 10000 -->
      <g transform="translate(12.9175 376.074219)scale(0.1 -0.1)">
       <use xlink:href="#DejaVuSans-49"/>
       <use x="63.623047" xlink:href="#DejaVuSans-48"/>
       <use x="127.246094" xlink:href="#DejaVuSans-48"/>
       <use x="190.869141" xlink:href="#DejaVuSans-48"/>
       <use x="254.492188" xlink:href="#DejaVuSans-48"/>
      </g>
     </g>
    </g>
    <g id="ytick_3">
     <g id="line2d_19">
      <path clip-path="url(#pf379b6658d)" d="M 51.73 251.783333 
L 1293.84 251.783333 
" style="fill:none;stroke:#808080;stroke-linecap:square;stroke-width:0.8;"/>
     </g>
     <g id="line2d_20">
      <g>
       <use style="stroke:#000000;stroke-width:0.8;" x="51.73" xlink:href="#me956b8bcc6" y="251.783333"/>
      </g>
     </g>
     <g id="text_10">
      <!-- 20000 -->
      <g transform="translate(12.9175 255.582552)scale(0.1 -0.1)">
       <use xlink:href="#DejaVuSans-50"/>
       <use x="63.623047" xlink:href="#DejaVuSans-48"/>
       <use x="127.246094" xlink:href="#DejaVuSans-48"/>
       <use x="190.869141" xlink:href="#DejaVuSans-48"/>
       <use x="254.492188" xlink:href="#DejaVuSans-48"/>
      </g>
     </g>
    </g>
    <g id="ytick_4">
     <g id="line2d_21">
      <path clip-path="url(#pf379b6658d)" d="M 51.73 131.291667 
L 1293.84 131.291667 
" style="fill:none;stroke:#808080;stroke-linecap:square;stroke-width:0.8;"/>
     </g>
     <g id="line2d_22">
      <g>
       <use style="stroke:#000000;stroke-width:0.8;" x="51.73" xlink:href="#me956b8bcc6" y="131.291667"/>
      </g>
     </g>
     <g id="text_11">
      <!-- 30000 -->
      <g transform="translate(12.9175 135.090885)scale(0.1 -0.1)">
       <use xlink:href="#DejaVuSans-51"/>
       <use x="63.623047" xlink:href="#DejaVuSans-48"/>
       <use x="127.246094" xlink:href="#DejaVuSans-48"/>
       <use x="190.869141" xlink:href="#DejaVuSans-48"/>
       <use x="254.492188" xlink:href="#DejaVuSans-48"/>
      </g>
     </g>
    </g>
    <g id="ytick_5">
     <g id="line2d_23">
      <path clip-path="url(#pf379b6658d)" d="M 51.73 10.8 
L 1293.84 10.8 
" style="fill:none;stroke:#808080;stroke-linecap:square;stroke-width:0.8;"/>
     </g>
     <g id="line2d_24">
      <g>
       <use style="stroke:#000000;stroke-width:0.8;" x="51.73" xlink:href="#me956b8bcc6" y="10.8"/>
      </g>
     </g>
     <g id="text_12">
      <!-- 40000 -->
      <defs>
       <path d="M 37.796875 64.3125 
L 12.890625 25.390625 
L 37.796875 25.390625 
z
M 35.203125 72.90625 
L 47.609375 72.90625 
L 47.609375 25.390625 
L 58.015625 25.390625 
L 58.015625 17.1875 
L 47.609375 17.1875 
L 47.609375 0 
L 37.796875 0 
L 37.796875 17.1875 
L 4.890625 17.1875 
L 4.890625 26.703125 
z
" id="DejaVuSans-52"/>
      </defs>
      <g transform="translate(12.9175 14.599219)scale(0.1 -0.1)">
       <use xlink:href="#DejaVuSans-52"/>
       <use x="63.623047" xlink:href="#DejaVuSans-48"/>
       <use x="127.246094" xlink:href="#DejaVuSans-48"/>
       <use x="190.869141" xlink:href="#DejaVuSans-48"/>
       <use x="254.492188" xlink:href="#DejaVuSans-48"/>
      </g>
     </g>
    </g>
   </g>
   <g id="line2d_25">
    <path clip-path="url(#pf379b6658d)" d="M 50.655103 492.620028 
L 1097.285453 492.619787 
L 1100.061686 492.619787 
L 1294.004655 492.619787 
L 1294.004655 492.619787 
" style="fill:none;stroke:#0000ff;stroke-linecap:square;"/>
   </g>
   <g id="line2d_26">
    <path clip-path="url(#pf379b6658d)" d="M 50.656386 544.91546 
L 52.92671 550.626765 
L 52.929968 557.976757 
L 54.198344 565.073716 
L 55.979244 570.001825 
L 55.982995 575.13477 
L 57.39204 580.568944 
L 59.236906 583.894514 
L 59.240559 588.653935 
L 60.643482 591.690325 
L 66.247774 594.208601 
L 68.198067 597.196794 
L 68.201424 599.823512 
L 68.374568 601.956215 
L 68.380096 606.607193 
L 70.265929 606.173423 
L 72.988956 606.354161 
L 73.009587 604.221458 
L 76.590537 602.630968 
L 77.898301 601.30556 
L 77.901657 598.727038 
L 79.730236 595.546058 
L 83.855396 591.569833 
L 83.977308 586.955002 
L 87.381067 581.520828 
L 87.476425 569.037892 
L 89.366897 565.640027 
L 89.369957 561.567408 
L 92.033361 559.51905 
L 92.815274 557.78397 
L 94.161043 556.060939 
L 97.001539 549.735127 
L 98.738116 543.602101 
L 100.044597 535.854487 
L 107.731853 526.456137 
L 107.757223 489.923063 
L 109.448885 476.777423 
L 109.457276 431.135179 
L 111.999952 419.833061 
L 113.122923 408.27791 
L 113.126477 393.67432 
L 114.457635 383.444577 
L 115.748914 366.720334 
L 120.270312 314.077525 
L 127.432707 282.159283 
L 127.454226 246.939568 
L 129.016573 222.636399 
L 129.027037 150.847464 
L 130.310418 144.352963 
L 131.73733 114.507178 
L 134.698158 106.181203 
L 136.58251 102.144732 
L 136.588828 97.951622 
L 211.849493 97.951622 
L 211.887498 175.620551 
L 214.262262 180.69325 
L 215.989757 184.802016 
L 215.993015 189.609633 
L 218.11744 195.706512 
L 218.120697 200.93585 
L 221.034637 207.370105 
L 221.037796 213.864606 
L 228.633446 219.672304 
L 228.655163 236.974908 
L 230.929337 243.517605 
L 230.937925 261.494962 
L 233.316045 266.362825 
L 233.319302 271.411426 
L 236.373909 278.038468 
L 236.377167 280.821825 
L 238.166062 283.026822 
L 238.169616 285.002886 
L 239.964435 286.087311 
L 247.048154 286.870507 
L 247.071648 290.400913 
L 249.486292 290.629847 
L 249.494189 300.55836 
L 252.064604 304.932208 
L 252.067861 310.836299 
L 253.084813 315.294491 
L 255.460564 318.34293 
L 255.464019 324.680792 
L 257.25785 326.753248 
L 257.261404 329.560704 
L 259.350292 333.717667 
L 266.510415 337.958973 
L 266.535587 348.586338 
L 302.399383 349.923796 
L 302.471148 440.81066 
L 310.920971 444.051886 
L 310.940417 459.17359 
L 312.699106 461.366538 
L 314.878317 461.908751 
L 314.883154 465.10178 
L 317.491278 466.222352 
L 317.496806 469.511775 
L 319.231705 471.355298 
L 319.238023 473.283164 
L 321.012506 473.873573 
L 322.774157 475.211031 
L 322.780869 476.403898 
L 324.701055 477.813651 
L 329.027 477.861848 
L 329.058786 479.259551 
L 335.738271 480.090943 
L 335.758409 482.006761 
L 337.121649 482.573072 
L 337.129941 484.549135 
L 338.598313 484.47684 
L 379.096337 484.693725 
L 379.100385 485.0552 
L 379.115587 477.500372 
L 379.19051 401.217098 
L 390.411137 396.56612 
L 390.444996 368.395168 
L 392.533686 365.202139 
L 392.543262 357.755754 
L 399.949578 355.21338 
L 399.969617 347.779044 
L 402.202726 345.537899 
L 402.213683 333.621273 
L 403.87968 327.668985 
L 406.23243 325.909807 
L 406.23549 318.511618 
L 407.688067 316.02949 
L 409.812492 315.571622 
L 409.815651 312.137609 
L 411.116801 309.510891 
L 415.974913 306.414255 
L 415.991102 300.172787 
L 419.386668 295.883283 
L 419.392492 287.653703 
L 420.700255 285.388459 
L 420.703612 282.315922 
L 422.128252 277.917976 
L 422.131313 274.411668 
L 423.708368 270.77282 
L 425.215139 267.579791 
L 426.526851 263.39873 
L 428.284652 260.169553 
L 428.288008 258.145293 
L 430.005731 253.795544 
L 433.977786 250.710957 
L 433.99743 243.397113 
L 437.731684 240.167937 
L 437.749452 231.87811 
L 439.605079 228.998359 
L 439.607744 224.696807 
L 442.302637 223.178612 
L 443.715827 216.178046 
L 445.100193 212.695837 
L 445.103549 212.033132 
L 447.890937 210.04502 
L 453.964121 205.357894 
L 453.987022 198.995934 
L 456.661482 184.88636 
L 456.665035 191.670041 
L 456.670662 181.753577 
L 458.898539 174.704814 
L 458.90229 179.367842 
L 461.047346 175.789239 
L 461.050406 172.728751 
L 462.426973 171.222605 
L 463.774124 169.198345 
L 465.088205 171.379244 
L 465.091956 170.475557 
L 466.872856 168.535641 
L 470.461407 166.981298 
L 475.579138 164.969088 
L 475.60125 161.595321 
L 478.134745 160.281962 
L 478.143037 158.113112 
L 479.901529 157.221473 
L 479.904787 156.98049 
L 481.781735 155.932212 
L 481.784993 154.992377 
L 483.616533 154.353772 
L 485.15282 154.076641 
L 485.156373 154.751394 
L 486.987519 155.040574 
L 489.145802 156.884097 
L 494.404496 157.956473 
L 494.423153 160.920568 
L 494.425917 155.522541 
L 496.005144 156.775654 
L 496.008599 161.498927 
L 496.011166 161.065157 
L 497.507769 157.787784 
L 502.355813 151.136644 
L 502.359169 155.377951 
L 504.109073 152.016233 
L 504.112429 147.678533 
L 504.115292 158.896307 
L 504.117957 154.329673 
L 505.843577 151.968037 
L 505.84723 151.498119 
L 508.58299 148.642467 
L 511.795836 150.232957 
L 513.735962 151.955987 
L 513.754125 150.148613 
L 513.756889 151.702955 
L 518.055194 151.931889 
L 518.058452 151.751152 
L 519.135817 154.462214 
L 519.139568 154.414017 
L 519.142431 156.149097 
L 522.479162 159.14934 
L 522.482913 160.510896 
L 524.322647 163.932859 
L 532.543947 165.740234 
L 532.565762 170.294819 
L 534.127221 172.053997 
L 534.13877 175.512108 
L 537.055178 176.476042 
L 537.058238 177.391778 
L 538.366002 178.464154 
L 538.369753 180.295627 
L 539.834373 182.054806 
L 541.596122 184.970704 
L 543.006351 187.802258 
L 543.010201 190.874796 
L 548.938176 193.465367 
L 550.67574 196.754789 
L 551.267333 199.791179 
L 551.275527 214.346572 
L 552.24707 218.792715 
L 553.703497 223.540087 
L 556.289903 226.974099 
L 558.684212 229.769506 
L 558.687865 233.769829 
L 560.573204 233.480649 
L 560.576462 237.962939 
L 563.019437 240.686051 
L 563.023089 244.421292 
L 568.232426 247.807108 
L 568.236078 248.349321 
L 570.035734 250.301286 
L 570.416277 253.120791 
L 570.419041 253.048496 
L 571.954537 257.217508 
L 573.365457 258.097097 
L 573.369208 262.639633 
L 575.516436 266.676103 
L 576.956575 267.387004 
L 576.96003 270.760771 
L 580.441279 277.966172 
L 580.445524 282.665347 
L 582.293549 285.533049 
L 589.50688 288.786324 
L 589.52988 297.305085 
L 590.947808 300.582458 
L 590.955903 312.197855 
L 593.894521 316.149982 
L 593.897581 320.282846 
L 594.523922 325.463988 
L 595.847381 330.319802 
L 597.155835 334.079142 
L 598.587288 336.742007 
L 601.17014 340.417003 
L 601.174089 344.091999 
L 607.91833 346.947652 
L 608.515155 349.996091 
L 608.518709 353.586743 
L 610.643035 356.80387 
L 610.653499 372.395492 
L 612.807044 376.889831 
L 614.224479 381.408268 
L 614.227835 385.408592 
L 615.975863 388.914899 
L 617.830009 393.577927 
L 619.768555 396.867349 
L 619.772306 398.59038 
L 627.443769 401.759311 
L 627.464499 406.374142 
L 629.211737 408.410451 
L 629.220424 414.182002 
L 631.712756 415.302574 
L 631.716112 417.302736 
L 633.759591 419.965602 
L 633.763046 422.230845 
L 635.580372 422.917647 
L 635.583827 425.05035 
L 637.330473 425.399776 
L 639.06784 426.845676 
L 645.974268 428.267477 
L 645.977723 427.677068 
L 646.397455 428.628952 
L 646.40091 430.267639 
L 646.403674 429.207313 
L 648.543597 429.906164 
L 648.549027 432.303948 
L 651.061003 432.954603 
L 651.067419 435.448781 
L 652.865989 436.147632 
L 654.327944 437.171812 
L 656.364513 438.340581 
L 656.36777 438.123696 
L 658.089343 439.641891 
L 660.414059 441.907134 
L 660.417711 442.605986 
L 661.710371 443.943443 
L 665.366443 445.497786 
L 665.670976 446.509916 
L 665.673937 446.943686 
L 667.637063 448.341389 
L 670.250912 449.377617 
L 670.254071 450.124666 
L 671.554727 450.546387 
L 671.558182 451.727205 
L 672.865353 451.932041 
L 674.187529 451.871795 
L 675.604865 450.919911 
L 681.548437 450.257207 
L 681.551793 449.461962 
L 684.18805 448.124504 
L 684.213913 443.112051 
L 688.478458 440.509431 
L 688.484579 436.605501 
L 688.741531 432.870259 
L 691.689034 428.749444 
L 693.038553 425.821497 
L 695.430986 423.917728 
L 695.434836 421.977812 
L 703.350912 419.194455 
L 703.368483 417.893145 
L 704.908422 416.386999 
L 704.922538 403.169063 
L 706.349548 401.072508 
L 708.175758 397.975872 
L 708.860142 393.397189 
L 710.66503 389.661947 
L 712.522236 387.60154 
L 712.525987 383.661462 
L 713.732568 379.456303 
L 715.06353 377.118765 
L 717.696134 373.973932 
L 720.440779 371.009838 
L 720.444234 370.009757 
L 722.739039 367.816808 
L 722.76046 364.153862 
L 724.536918 361.454848 
L 727.717484 359.599277 
L 727.720544 361.659684 
L 729.009355 355.815838 
L 729.013007 352.46617 
L 731.141775 351.417892 
L 731.145329 350.249123 
L 733.421379 347.272979 
L 735.157561 344.766752 
L 735.161016 340.947167 
L 740.34449 337.705941 
L 743.042443 334.633403 
L 743.067516 316.270473 
L 745.610587 313.13769 
L 745.613845 308.739744 
L 747.408367 304.703273 
L 747.411822 301.85967 
L 748.607842 297.702707 
L 750.496833 295.449513 
L 752.041609 290.894928 
L 752.045064 286.82231 
L 753.654794 281.243546 
L 757.1777 278.279451 
L 758.509748 273.66462 
L 759.099367 267.387004 
L 759.102624 265.362744 
L 761.955855 260.398487 
L 761.959112 253.650954 
L 762.132059 251.602596 
L 763.935959 245.915389 
L 766.297693 241.445148 
L 767.062134 238.52925 
L 767.065392 234.48073 
L 769.03217 231.661225 
L 770.77852 228.227213 
L 770.782271 225.793281 
L 772.115404 235.842286 
L 781.031848 203.020356 
L 781.051887 212.310263 
L 783.489827 216.55157 
L 783.493085 218.768617 
L 783.503253 190.766353 
L 785.773478 185.476769 
L 785.779203 176.078419 
L 787.127834 170.993671 
L 788.925318 167.68015 
L 791.162376 165.716136 
L 791.165831 161.727862 
L 792.601429 157.41426 
L 799.996295 154.570657 
L 800.016037 146.582059 
L 801.389347 144.292717 
L 801.400206 133.014698 
L 802.853868 129.327652 
L 805.107609 126.640688 
L 806.842903 123.86938 
L 806.846259 121.375203 
L 808.237534 119.134057 
L 809.989906 116.92906 
L 811.394607 114.940947 
L 818.076461 114.748161 
L 818.080015 106.614973 
L 819.774737 103.940058 
L 819.795072 105.301614 
L 819.803068 97.951622 
L 822.593911 97.951622 
L 824.337793 98.385393 
L 824.343716 97.951622 
L 840.601621 97.951622 
L 840.606458 107.554808 
L 843.152886 112.109393 
L 844.189975 118.447255 
L 845.521134 124.327248 
L 845.524589 128.231178 
L 847.258205 135.1474 
L 848.588278 142.160015 
L 850.035919 146.003699 
L 851.898357 152.751233 
L 859.708611 157.41426 
L 859.738127 176.765222 
L 861.364342 180.440218 
L 861.36987 188.043242 
L 864.017479 191.911024 
L 864.020736 195.284791 
L 867.185607 204.466256 
L 867.189161 209.623299 
L 868.639171 213.816409 
L 870.086812 218.491486 
L 873.217627 222.732793 
L 873.220884 227.142787 
L 879.054686 231.890159 
L 879.077094 240.384822 
L 880.652077 244.89121 
L 880.660862 257.482589 
L 882.169607 259.579144 
L 884.025727 264.603647 
L 885.16696 268.724462 
L 885.17002 272.134376 
L 886.960989 277.905927 
L 890.534339 287.942882 
L 890.537892 293.642138 
L 892.969219 298.413608 
L 897.115307 303.462209 
L 897.118959 308.6554 
L 899.368751 312.185806 
L 899.390665 327.909968 
L 900.832581 333.103159 
L 903.888965 339.103644 
L 903.928648 350.273222 
L 906.325228 355.538707 
L 907.857368 362.551322 
L 907.860922 368.274677 
L 909.231073 374.479997 
L 910.649297 379.167123 
L 912.063277 383.095152 
L 914.490458 386.87859 
L 914.494308 390.396947 
L 916.263658 393.541779 
L 916.267014 396.192596 
L 919.094184 398.457839 
L 919.097639 401.289393 
L 919.597823 404.410127 
L 921.056718 406.747666 
L 923.512427 411.193808 
L 924.15772 414.338641 
L 925.538137 418.013637 
L 927.303342 421.013879 
L 927.307093 424.339449 
L 928.663029 426.484201 
L 930.890709 429.520591 
L 938.164748 432.062965 
L 938.184096 437.62968 
L 940.835654 440.485332 
L 940.846019 452.847778 
L 942.727607 456.040807 
L 942.730766 458.065067 
L 944.340496 460.053179 
L 944.343951 461.908751 
L 945.707093 464.246289 
L 947.589174 466.415139 
L 949.756836 468.234563 
L 949.76039 469.499726 
L 951.48986 470.30702 
L 955.530916 471.102265 
L 957.288124 470.584151 
L 957.31073 473.439803 
L 959.082055 473.006033 
L 961.852957 472.596362 
L 961.856116 473.63259 
L 962.497363 473.536197 
L 966.964568 474.536277 
L 969.182474 474.042262 
L 969.186127 473.500049 
L 969.189384 474.235048 
L 976.642491 473.933819 
L 976.646144 473.415705 
L 976.66253 474.608572 
L 978.086875 473.873573 
L 978.095463 472.885542 
L 978.097931 473.560295 
L 979.440343 472.138493 
L 981.496359 473.222918 
L 983.249422 472.704804 
L 984.974351 473.403656 
L 984.977904 473.102427 
L 986.781509 473.234967 
L 988.658951 472.62046 
L 988.662801 472.090297 
L 990.746555 471.644477 
L 996.825464 469.198497 
L 996.849057 462.908832 
L 999.903072 460.511047 
L 999.908994 454.414169 
L 1001.59039 452.064582 
L 1001.596511 444.931475 
L 1002.972486 441.557708 
L 1005.639739 438.774351 
L 1007.392604 434.388454 
L 1007.396059 430.858048 
L 1010.454121 427.713216 
L 1010.457576 424.917809 
L 1013.592734 419.652323 
L 1015.206116 416.700277 
L 1016.296314 413.447002 
L 1016.299473 407.072993 
L 1017.261836 403.169063 
L 1017.2646 398.891609 
L 1018.660219 393.300796 
L 1018.663377 388.131703 
L 1021.123232 382.348103 
L 1021.877112 377.010322 
L 1023.675286 371.564099 
L 1025.417293 363.045338 
L 1025.420945 353.719283 
L 1026.883098 348.538142 
L 1028.771102 345.501752 
L 1030.964232 338.959054 
L 1030.96749 334.621354 
L 1033.117382 330.247507 
L 1034.972219 324.813333 
L 1034.978241 316.451211 
L 1037.595347 310.221792 
L 1040.312945 306.221468 
L 1040.316103 300.642704 
L 1041.700765 295.341071 
L 1043.464785 292.967385 
L 1043.468141 289.232143 
L 1045.741328 282.074938 
L 1045.74498 276.472076 
L 1047.506631 270.652328 
L 1055.04789 264.70004 
L 1055.070495 255.952345 
L 1056.900555 250.590466 
L 1056.911808 236.432695 
L 1059.681132 233.239666 
L 1060.483183 227.323525 
L 1060.486441 229.142949 
L 1062.296264 228.251311 
L 1065.126889 223.443693 
L 1065.130541 218.190257 
L 1067.379642 215.53944 
L 1067.383097 215.274358 
L 1067.385861 219.033698 
L 1074.861869 213.744114 
L 1074.884573 197.537985 
L 1076.899228 196.706592 
L 1076.907619 193.115941 
L 1080.647992 188.21193 
L 1080.651447 186.115375 
L 1081.886952 185.139392 
L 1083.7563 183.813984 
L 1085.271264 180.235382 
L 1085.274719 179.066613 
L 1088.095275 178.37981 
L 1088.09873 177.994237 
L 1091.56991 177.777352 
L 1093.920292 176.970057 
L 1093.926116 192.007417 
L 1095.971273 198.513967 
L 1097.290191 156.811802 
L 1097.293251 157.932374 
L 1098.719965 196.863232 
L 1100.065832 176.138665 
L 1101.432035 168.053674 
L 1102.799224 177.909893 
L 1104.699074 183.946525 
L 1106.474446 188.50111 
L 1106.478296 192.778564 
L 1114.162887 188.946929 
L 1114.18421 182.958493 
L 1114.18727 193.899137 
L 1115.968367 201.622653 
L 1115.979127 210.792068 
L 1118.551713 190.23619 
L 1118.554971 223.009923 
L 1119.615653 225.299265 
L 1120.956289 222.564104 
L 1120.960336 239.601626 
L 1122.791876 226.504182 
L 1124.117309 231.227455 
L 1127.782956 242.72236 
L 1127.786411 239.529331 
L 1127.789175 247.108257 
L 1130.494433 253.614807 
L 1133.024573 249.457844 
L 1133.227529 257.506687 
L 1134.98296 258.229637 
L 1134.985922 263.483074 
L 1137.376578 264.037336 
L 1137.804899 264.928974 
L 1139.068833 269.519707 
L 1140.643223 271.881343 
L 1142.490163 271.712655 
L 1142.493716 277.351665 
L 1143.910658 275.749126 
L 1147.707693 275.484044 
L 1147.85221 281.351988 
L 1147.855665 279.207237 
L 1149.754232 281.496578 
L 1153.591444 289.183947 
L 1156.806955 291.654026 
L 1156.810311 293.292712 
L 1158.621911 295.172383 
L 1158.625366 284.641411 
L 1158.62813 301.184917 
L 1160.399751 269.03774 
L 1162.318555 196.537904 
L 1163.558896 97.951622 
L 1167.84654 138.304282 
L 1167.849995 194.369054 
L 1171.294128 265.917006 
L 1171.314661 355.900183 
L 1173.137415 346.345193 
L 1173.14087 350.020189 
L 1173.143535 324.680792 
L 1175.924507 287.039195 
L 1178.495416 261.904633 
L 1178.498871 255.398083 
L 1179.93901 236.866465 
L 1181.720403 252.373742 
L 1181.724352 276.435928 
L 1183.14001 291.605829 
L 1190.601211 314.414902 
L 1190.619078 321.788992 
L 1192.28932 318.656208 
L 1192.300869 285.978868 
L 1195.656752 282.19543 
L 1196.482494 278.472238 
L 1196.485752 285.653541 
L 1197.910985 294.907301 
L 1197.914342 300.220983 
L 1199.269685 309.763923 
L 1200.696991 302.58262 
L 1202.540575 302.919997 
L 1206.052129 301.209015 
L 1206.055584 289.039357 
L 1206.072464 293.822876 
L 1210.77836 290.617797 
L 1210.799287 298.606395 
L 1212.45561 295.148284 
L 1212.459262 298.184674 
L 1215.127009 293.533696 
L 1215.130168 292.485418 
L 1216.813242 290.774437 
L 1218.317348 288.55739 
L 1219.629159 290.533453 
L 1221.420917 295.702546 
L 1228.347483 301.004179 
L 1228.365745 293.136073 
L 1230.338052 300.943933 
L 1230.341803 289.244192 
L 1230.349897 300.088442 
L 1231.271196 303.148931 
L 1234.716414 294.136154 
L 1234.71977 292.160091 
L 1235.578977 294.232548 
L 1237.375079 292.907139 
L 1239.265749 297.967789 
L 1239.269401 294.714514 
L 1241.07192 295.6423 
L 1248.791258 295.6423 
L 1248.794812 297.871396 
L 1248.812186 297.124347 
L 1250.650142 295.871234 
L 1250.653597 293.015582 
L 1250.661692 296.015824 
L 1254.768985 295.979677 
L 1254.772243 296.630332 
L 1255.797586 295.654349 
L 1255.800745 296.521889 
L 1257.617872 295.991726 
L 1259.417232 296.449594 
L 1259.420884 295.798939 
L 1260.739408 295.196481 
L 1262.098108 294.136154 
L 1267.206164 293.352958 
L 1267.209718 296.039922 
L 1267.225907 295.594103 
L 1269.284391 296.702627 
L 1269.290807 295.027793 
L 1271.534676 295.292874 
L 1271.538032 293.786728 
L 1273.317352 294.991645 
L 1274.644859 295.292874 
L 1276.023203 295.859185 
L 1277.454754 296.606233 
L 1277.458209 296.268857 
L 1279.357664 297.497872 
L 1280.666711 297.0882 
L 1289.283854 297.220741 
L 1289.302708 296.871315 
L 1290.72034 296.859266 
L 1290.734259 296.172463 
L 1290.739392 297.003856 
L 1292.382487 296.907462 
L 1294.008307 296.341152 
L 1294.008307 296.341152 
" style="fill:none;stroke:#ff0000;stroke-linecap:square;"/>
   </g>
   <g id="patch_3">
    <path d="M 51.73 589.16 
L 51.73 10.8 
" style="fill:none;stroke:#000000;stroke-linecap:square;stroke-linejoin:miter;stroke-width:0.8;"/>
   </g>
   <g id="patch_4">
    <path d="M 1293.84 589.16 
L 1293.84 10.8 
" style="fill:none;stroke:#000000;stroke-linecap:square;stroke-linejoin:miter;stroke-width:0.8;"/>
   </g>
   <g id="patch_5">
    <path d="M 51.73 589.16 
L 1293.84 589.16 
" style="fill:none;stroke:#000000;stroke-linecap:square;stroke-linejoin:miter;stroke-width:0.8;"/>
   </g>
   <g id="patch_6">
    <path d="M 51.73 10.8 
L 1293.84 10.8 
" style="fill:none;stroke:#000000;stroke-linecap:square;stroke-linejoin:miter;stroke-width:0.8;"/>
   </g>
   <g id="legend_1">
    <g id="patch_7">
     <path d="M 58.73 48.7125 
L 236.997188 48.7125 
Q 238.997188 48.7125 238.997188 46.7125 
L 238.997188 17.8 
Q 238.997188 15.8 236.997188 15.8 
L 58.73 15.8 
Q 56.73 15.8 56.73 17.8 
L 56.73 46.7125 
Q 56.73 48.7125 58.73 48.7125 
z
" style="fill:#ffffff;opacity:0.8;stroke:#cccccc;stroke-linejoin:miter;"/>
    </g>
    <g id="line2d_27">
     <path d="M 60.73 23.898438 
L 80.73 23.898438 
" style="fill:none;stroke:#ff0000;stroke-linecap:square;"/>
    </g>
    <g id="line2d_28"/>
    <g id="text_13">
     <!-- /sensor_data/accelZ -->
     <defs>
      <path d="M 25.390625 72.90625 
L 33.6875 72.90625 
L 8.296875 -9.28125 
L 0 -9.28125 
z
" id="DejaVuSans-47"/>
      <path d="M 44.28125 53.078125 
L 44.28125 44.578125 
Q 40.484375 46.53125 36.375 47.5 
Q 32.28125 48.484375 27.875 48.484375 
Q 21.1875 48.484375 17.84375 46.4375 
Q 14.5 44.390625 14.5 40.28125 
Q 14.5 37.15625 16.890625 35.375 
Q 19.28125 33.59375 26.515625 31.984375 
L 29.59375 31.296875 
Q 39.15625 29.25 43.1875 25.515625 
Q 47.21875 21.78125 47.21875 15.09375 
Q 47.21875 7.46875 41.1875 3.015625 
Q 35.15625 -1.421875 24.609375 -1.421875 
Q 20.21875 -1.421875 15.453125 -0.5625 
Q 10.6875 0.296875 5.421875 2 
L 5.421875 11.28125 
Q 10.40625 8.6875 15.234375 7.390625 
Q 20.0625 6.109375 24.8125 6.109375 
Q 31.15625 6.109375 34.5625 8.28125 
Q 37.984375 10.453125 37.984375 14.40625 
Q 37.984375 18.0625 35.515625 20.015625 
Q 33.0625 21.96875 24.703125 23.78125 
L 21.578125 24.515625 
Q 13.234375 26.265625 9.515625 29.90625 
Q 5.8125 33.546875 5.8125 39.890625 
Q 5.8125 47.609375 11.28125 51.796875 
Q 16.75 56 26.8125 56 
Q 31.78125 56 36.171875 55.265625 
Q 40.578125 54.546875 44.28125 53.078125 
z
" id="DejaVuSans-115"/>
      <path d="M 56.203125 29.59375 
L 56.203125 25.203125 
L 14.890625 25.203125 
Q 15.484375 15.921875 20.484375 11.0625 
Q 25.484375 6.203125 34.421875 6.203125 
Q 39.59375 6.203125 44.453125 7.46875 
Q 49.3125 8.734375 54.109375 11.28125 
L 54.109375 2.78125 
Q 49.265625 0.734375 44.1875 -0.34375 
Q 39.109375 -1.421875 33.890625 -1.421875 
Q 20.796875 -1.421875 13.15625 6.1875 
Q 5.515625 13.8125 5.515625 26.8125 
Q 5.515625 40.234375 12.765625 48.109375 
Q 20.015625 56 32.328125 56 
Q 43.359375 56 49.78125 48.890625 
Q 56.203125 41.796875 56.203125 29.59375 
z
M 47.21875 32.234375 
Q 47.125 39.59375 43.09375 43.984375 
Q 39.0625 48.390625 32.421875 48.390625 
Q 24.90625 48.390625 20.390625 44.140625 
Q 15.875 39.890625 15.1875 32.171875 
z
" id="DejaVuSans-101"/>
      <path d="M 54.890625 33.015625 
L 54.890625 0 
L 45.90625 0 
L 45.90625 32.71875 
Q 45.90625 40.484375 42.875 44.328125 
Q 39.84375 48.1875 33.796875 48.1875 
Q 26.515625 48.1875 22.3125 43.546875 
Q 18.109375 38.921875 18.109375 30.90625 
L 18.109375 0 
L 9.078125 0 
L 9.078125 54.6875 
L 18.109375 54.6875 
L 18.109375 46.1875 
Q 21.34375 51.125 25.703125 53.5625 
Q 30.078125 56 35.796875 56 
Q 45.21875 56 50.046875 50.171875 
Q 54.890625 44.34375 54.890625 33.015625 
z
" id="DejaVuSans-110"/>
      <path d="M 30.609375 48.390625 
Q 23.390625 48.390625 19.1875 42.75 
Q 14.984375 37.109375 14.984375 27.296875 
Q 14.984375 17.484375 19.15625 11.84375 
Q 23.34375 6.203125 30.609375 6.203125 
Q 37.796875 6.203125 41.984375 11.859375 
Q 46.1875 17.53125 46.1875 27.296875 
Q 46.1875 37.015625 41.984375 42.703125 
Q 37.796875 48.390625 30.609375 48.390625 
z
M 30.609375 56 
Q 42.328125 56 49.015625 48.375 
Q 55.71875 40.765625 55.71875 27.296875 
Q 55.71875 13.875 49.015625 6.21875 
Q 42.328125 -1.421875 30.609375 -1.421875 
Q 18.84375 -1.421875 12.171875 6.21875 
Q 5.515625 13.875 5.515625 27.296875 
Q 5.515625 40.765625 12.171875 48.375 
Q 18.84375 56 30.609375 56 
z
" id="DejaVuSans-111"/>
      <path d="M 41.109375 46.296875 
Q 39.59375 47.171875 37.8125 47.578125 
Q 36.03125 48 33.890625 48 
Q 26.265625 48 22.1875 43.046875 
Q 18.109375 38.09375 18.109375 28.8125 
L 18.109375 0 
L 9.078125 0 
L 9.078125 54.6875 
L 18.109375 54.6875 
L 18.109375 46.1875 
Q 20.953125 51.171875 25.484375 53.578125 
Q 30.03125 56 36.53125 56 
Q 37.453125 56 38.578125 55.875 
Q 39.703125 55.765625 41.0625 55.515625 
z
" id="DejaVuSans-114"/>
      <path d="M 50.984375 -16.609375 
L 50.984375 -23.578125 
L -0.984375 -23.578125 
L -0.984375 -16.609375 
z
" id="DejaVuSans-95"/>
      <path d="M 45.40625 46.390625 
L 45.40625 75.984375 
L 54.390625 75.984375 
L 54.390625 0 
L 45.40625 0 
L 45.40625 8.203125 
Q 42.578125 3.328125 38.25 0.953125 
Q 33.9375 -1.421875 27.875 -1.421875 
Q 17.96875 -1.421875 11.734375 6.484375 
Q 5.515625 14.40625 5.515625 27.296875 
Q 5.515625 40.1875 11.734375 48.09375 
Q 17.96875 56 27.875 56 
Q 33.9375 56 38.25 53.625 
Q 42.578125 51.265625 45.40625 46.390625 
z
M 14.796875 27.296875 
Q 14.796875 17.390625 18.875 11.75 
Q 22.953125 6.109375 30.078125 6.109375 
Q 37.203125 6.109375 41.296875 11.75 
Q 45.40625 17.390625 45.40625 27.296875 
Q 45.40625 37.203125 41.296875 42.84375 
Q 37.203125 48.484375 30.078125 48.484375 
Q 22.953125 48.484375 18.875 42.84375 
Q 14.796875 37.203125 14.796875 27.296875 
z
" id="DejaVuSans-100"/>
      <path d="M 34.28125 27.484375 
Q 23.390625 27.484375 19.1875 25 
Q 14.984375 22.515625 14.984375 16.5 
Q 14.984375 11.71875 18.140625 8.90625 
Q 21.296875 6.109375 26.703125 6.109375 
Q 34.1875 6.109375 38.703125 11.40625 
Q 43.21875 16.703125 43.21875 25.484375 
L 43.21875 27.484375 
z
M 52.203125 31.203125 
L 52.203125 0 
L 43.21875 0 
L 43.21875 8.296875 
Q 40.140625 3.328125 35.546875 0.953125 
Q 30.953125 -1.421875 24.3125 -1.421875 
Q 15.921875 -1.421875 10.953125 3.296875 
Q 6 8.015625 6 15.921875 
Q 6 25.140625 12.171875 29.828125 
Q 18.359375 34.515625 30.609375 34.515625 
L 43.21875 34.515625 
L 43.21875 35.40625 
Q 43.21875 41.609375 39.140625 45 
Q 35.0625 48.390625 27.6875 48.390625 
Q 23 48.390625 18.546875 47.265625 
Q 14.109375 46.140625 10.015625 43.890625 
L 10.015625 52.203125 
Q 14.9375 54.109375 19.578125 55.046875 
Q 24.21875 56 28.609375 56 
Q 40.484375 56 46.34375 49.84375 
Q 52.203125 43.703125 52.203125 31.203125 
z
" id="DejaVuSans-97"/>
      <path d="M 18.3125 70.21875 
L 18.3125 54.6875 
L 36.8125 54.6875 
L 36.8125 47.703125 
L 18.3125 47.703125 
L 18.3125 18.015625 
Q 18.3125 11.328125 20.140625 9.421875 
Q 21.96875 7.515625 27.59375 7.515625 
L 36.8125 7.515625 
L 36.8125 0 
L 27.59375 0 
Q 17.1875 0 13.234375 3.875 
Q 9.28125 7.765625 9.28125 18.015625 
L 9.28125 47.703125 
L 2.6875 47.703125 
L 2.6875 54.6875 
L 9.28125 54.6875 
L 9.28125 70.21875 
z
" id="DejaVuSans-116"/>
      <path d="M 48.78125 52.59375 
L 48.78125 44.1875 
Q 44.96875 46.296875 41.140625 47.34375 
Q 37.3125 48.390625 33.40625 48.390625 
Q 24.65625 48.390625 19.8125 42.84375 
Q 14.984375 37.3125 14.984375 27.296875 
Q 14.984375 17.28125 19.8125 11.734375 
Q 24.65625 6.203125 33.40625 6.203125 
Q 37.3125 6.203125 41.140625 7.25 
Q 44.96875 8.296875 48.78125 10.40625 
L 48.78125 2.09375 
Q 45.015625 0.34375 40.984375 -0.53125 
Q 36.96875 -1.421875 32.421875 -1.421875 
Q 20.0625 -1.421875 12.78125 6.34375 
Q 5.515625 14.109375 5.515625 27.296875 
Q 5.515625 40.671875 12.859375 48.328125 
Q 20.21875 56 33.015625 56 
Q 37.15625 56 41.109375 55.140625 
Q 45.0625 54.296875 48.78125 52.59375 
z
" id="DejaVuSans-99"/>
      <path d="M 9.421875 75.984375 
L 18.40625 75.984375 
L 18.40625 0 
L 9.421875 0 
z
" id="DejaVuSans-108"/>
      <path d="M 5.609375 72.90625 
L 62.890625 72.90625 
L 62.890625 65.375 
L 16.796875 8.296875 
L 64.015625 8.296875 
L 64.015625 0 
L 4.5 0 
L 4.5 7.515625 
L 50.59375 64.59375 
L 5.609375 64.59375 
z
" id="DejaVuSans-90"/>
     </defs>
     <g transform="translate(88.73 27.398438)scale(0.1 -0.1)">
      <use xlink:href="#DejaVuSans-47"/>
      <use x="33.691406" xlink:href="#DejaVuSans-115"/>
      <use x="85.791016" xlink:href="#DejaVuSans-101"/>
      <use x="147.314453" xlink:href="#DejaVuSans-110"/>
      <use x="210.693359" xlink:href="#DejaVuSans-115"/>
      <use x="262.792969" xlink:href="#DejaVuSans-111"/>
      <use x="323.974609" xlink:href="#DejaVuSans-114"/>
      <use x="365.087891" xlink:href="#DejaVuSans-95"/>
      <use x="415.087891" xlink:href="#DejaVuSans-100"/>
      <use x="478.564453" xlink:href="#DejaVuSans-97"/>
      <use x="539.84375" xlink:href="#DejaVuSans-116"/>
      <use x="579.052734" xlink:href="#DejaVuSans-97"/>
      <use x="640.332031" xlink:href="#DejaVuSans-47"/>
      <use x="674.023438" xlink:href="#DejaVuSans-97"/>
      <use x="735.302734" xlink:href="#DejaVuSans-99"/>
      <use x="790.283203" xlink:href="#DejaVuSans-99"/>
      <use x="845.263672" xlink:href="#DejaVuSans-101"/>
      <use x="906.787109" xlink:href="#DejaVuSans-108"/>
      <use x="934.570312" xlink:href="#DejaVuSans-90"/>
     </g>
    </g>
    <g id="line2d_29">
     <path d="M 60.73 38.854687 
L 80.73 38.854687 
" style="fill:none;stroke:#0000ff;stroke-linecap:square;"/>
    </g>
    <g id="line2d_30"/>
    <g id="text_14">
     <!-- /sensor_data/battery_voltage -->
     <defs>
      <path d="M 48.6875 27.296875 
Q 48.6875 37.203125 44.609375 42.84375 
Q 40.53125 48.484375 33.40625 48.484375 
Q 26.265625 48.484375 22.1875 42.84375 
Q 18.109375 37.203125 18.109375 27.296875 
Q 18.109375 17.390625 22.1875 11.75 
Q 26.265625 6.109375 33.40625 6.109375 
Q 40.53125 6.109375 44.609375 11.75 
Q 48.6875 17.390625 48.6875 27.296875 
z
M 18.109375 46.390625 
Q 20.953125 51.265625 25.265625 53.625 
Q 29.59375 56 35.59375 56 
Q 45.5625 56 51.78125 48.09375 
Q 58.015625 40.1875 58.015625 27.296875 
Q 58.015625 14.40625 51.78125 6.484375 
Q 45.5625 -1.421875 35.59375 -1.421875 
Q 29.59375 -1.421875 25.265625 0.953125 
Q 20.953125 3.328125 18.109375 8.203125 
L 18.109375 0 
L 9.078125 0 
L 9.078125 75.984375 
L 18.109375 75.984375 
z
" id="DejaVuSans-98"/>
      <path d="M 32.171875 -5.078125 
Q 28.375 -14.84375 24.75 -17.8125 
Q 21.140625 -20.796875 15.09375 -20.796875 
L 7.90625 -20.796875 
L 7.90625 -13.28125 
L 13.1875 -13.28125 
Q 16.890625 -13.28125 18.9375 -11.515625 
Q 21 -9.765625 23.484375 -3.21875 
L 25.09375 0.875 
L 2.984375 54.6875 
L 12.5 54.6875 
L 29.59375 11.921875 
L 46.6875 54.6875 
L 56.203125 54.6875 
z
" id="DejaVuSans-121"/>
      <path d="M 2.984375 54.6875 
L 12.5 54.6875 
L 29.59375 8.796875 
L 46.6875 54.6875 
L 56.203125 54.6875 
L 35.6875 0 
L 23.484375 0 
z
" id="DejaVuSans-118"/>
      <path d="M 45.40625 27.984375 
Q 45.40625 37.75 41.375 43.109375 
Q 37.359375 48.484375 30.078125 48.484375 
Q 22.859375 48.484375 18.828125 43.109375 
Q 14.796875 37.75 14.796875 27.984375 
Q 14.796875 18.265625 18.828125 12.890625 
Q 22.859375 7.515625 30.078125 7.515625 
Q 37.359375 7.515625 41.375 12.890625 
Q 45.40625 18.265625 45.40625 27.984375 
z
M 54.390625 6.78125 
Q 54.390625 -7.171875 48.1875 -13.984375 
Q 42 -20.796875 29.203125 -20.796875 
Q 24.46875 -20.796875 20.265625 -20.09375 
Q 16.0625 -19.390625 12.109375 -17.921875 
L 12.109375 -9.1875 
Q 16.0625 -11.328125 19.921875 -12.34375 
Q 23.78125 -13.375 27.78125 -13.375 
Q 36.625 -13.375 41.015625 -8.765625 
Q 45.40625 -4.15625 45.40625 5.171875 
L 45.40625 9.625 
Q 42.625 4.78125 38.28125 2.390625 
Q 33.9375 0 27.875 0 
Q 17.828125 0 11.671875 7.65625 
Q 5.515625 15.328125 5.515625 27.984375 
Q 5.515625 40.671875 11.671875 48.328125 
Q 17.828125 56 27.875 56 
Q 33.9375 56 38.28125 53.609375 
Q 42.625 51.21875 45.40625 46.390625 
L 45.40625 54.6875 
L 54.390625 54.6875 
z
" id="DejaVuSans-103"/>
     </defs>
     <g transform="translate(88.73 42.354687)scale(0.1 -0.1)">
      <use xlink:href="#DejaVuSans-47"/>
      <use x="33.691406" xlink:href="#DejaVuSans-115"/>
      <use x="85.791016" xlink:href="#DejaVuSans-101"/>
      <use x="147.314453" xlink:href="#DejaVuSans-110"/>
      <use x="210.693359" xlink:href="#DejaVuSans-115"/>
      <use x="262.792969" xlink:href="#DejaVuSans-111"/>
      <use x="323.974609" xlink:href="#DejaVuSans-114"/>
      <use x="365.087891" xlink:href="#DejaVuSans-95"/>
      <use x="415.087891" xlink:href="#DejaVuSans-100"/>
      <use x="478.564453" xlink:href="#DejaVuSans-97"/>
      <use x="539.84375" xlink:href="#DejaVuSans-116"/>
      <use x="579.052734" xlink:href="#DejaVuSans-97"/>
      <use x="640.332031" xlink:href="#DejaVuSans-47"/>
      <use x="674.023438" xlink:href="#DejaVuSans-98"/>
      <use x="737.5" xlink:href="#DejaVuSans-97"/>
      <use x="798.779297" xlink:href="#DejaVuSans-116"/>
      <use x="837.988281" xlink:href="#DejaVuSans-116"/>
      <use x="877.197266" xlink:href="#DejaVuSans-101"/>
      <use x="938.720703" xlink:href="#DejaVuSans-114"/>
      <use x="979.833984" xlink:href="#DejaVuSans-121"/>
      <use x="1039.013672" xlink:href="#DejaVuSans-95"/>
      <use x="1089.013672" xlink:href="#DejaVuSans-118"/>
      <use x="1148.193359" xlink:href="#DejaVuSans-111"/>
      <use x="1209.375" xlink:href="#DejaVuSans-108"/>
      <use x="1237.158203" xlink:href="#DejaVuSans-116"/>
      <use x="1276.367188" xlink:href="#DejaVuSans-97"/>
      <use x="1337.646484" xlink:href="#DejaVuSans-103"/>
      <use x="1401.123047" xlink:href="#DejaVuSans-101"/>
     </g>
    </g>
   </g>
  </g>
 </g>
 <defs>
  <clipPath id="pf379b6658d">
   <rect height="578.36" width="1242.11" x="51.73" y="10.8"/>
  </clipPath>
 </defs>
</svg>
